<?xml version="1.0" encoding="utf-8"?>
<!-- Generator: Adobe Illustrator 27.0.0, SVG Export Plug-In . SVG Version: 6.00 Build 0)  -->
<svg version="1.1" id="Layer_1" xmlns="http://www.w3.org/2000/svg" xmlns:xlink="http://www.w3.org/1999/xlink" x="0px" y="0px"
	 viewBox="0 0 1080 540" style="enable-background:new 0 0 1080 540;" xml:space="preserve">
<style type="text/css">
	.st0{fill:#004D9F;}
	.st1{fill:#0087DC;}
	.st2{fill:#FFFFFF;}
	.st3{fill:#C3F000;}
</style>
<g>
	<path class="st0" d="M640.82,16.64v167.36h43.45V132.5l17.7-18.67l45.06,70.16h54.07L731.58,82.61l61.79-65.98H739.3l-55.03,64.37
		V16.64H640.82z M506.29,24.68c-12.87,7.72-22.53,18.02-29.61,31.22c-6.76,13.2-10.3,28-10.3,44.41c0,25.43,7.72,46.34,23.49,62.76
		c15.77,16.41,35.72,24.46,59.86,24.46c22.21,0,40.23-6.11,53.75-18.67c13.84-12.55,21.24-28.97,22.53-49.88h-43.45
		c-2.25,20.6-13.52,30.9-33.79,30.9c-11.59,0-21.24-4.51-28.32-13.2c-7.08-8.69-10.62-20.92-10.62-36.37s3.54-27.68,10.62-36.37
		c7.08-8.69,16.41-13.2,28.32-13.2c19.63,0,30.9,8.69,33.79,25.75h43.45c-0.64-12.55-4.51-23.49-11.59-33.15s-16.41-17.06-28-22.21
		c-11.59-5.15-23.82-7.72-37.01-7.72C533.65,13.1,518.84,16.96,506.29,24.68 M388.5,62.98h0.32l18.34,58.57h-37.33L388.5,62.98z
		 M366.94,16.64L304.5,183.99h44.74l10.62-29.93h58.25l10.3,29.93h45.38L411.03,16.64H366.94z M152.27,16.64v167.36h43.45v-68.87
		H253v68.87h43.45V16.64H253v60.83h-57.29V16.64H152.27z"/>
	<path class="st1" d="M784.36,207.81v167.03h40.87V270.89h0.32l57.93,104.28h44.74V207.81h-40.87V310.8h-0.32l-57.93-102.99H784.36z
		 M658.52,255.44c6.76-9.01,16.41-13.52,28.32-13.52c12.55,0,22.21,4.51,28.97,13.2c6.76,9.01,10.3,20.92,10.3,36.37
		c0,15.13-3.54,27.36-10.3,36.05c-6.76,9.01-16.41,13.52-28.64,13.52s-21.56-4.51-28.64-13.52c-6.76-9.01-10.3-20.92-10.3-36.05
		C648.22,276.36,651.76,264.45,658.52,255.44 M626.98,228.73c-14.8,16.09-22.21,37.01-22.21,62.76c0,26.07,7.72,46.99,22.85,63.08
		c15.13,16.09,35.08,24.14,59.54,24.14c24.46,0,44.41-8.05,59.54-23.82s22.85-37.01,22.85-63.08s-7.72-46.99-22.85-63.08
		s-35.08-24.14-59.86-24.14C662.06,204.27,642.11,212.64,626.98,228.73 M445.46,207.81v167.03h43.45v-68.55h57.29v68.87h43.45
		V207.81H546.2v60.83h-57.29v-60.83H445.46z M291.95,207.81v37.33h49.88v129.7h43.45v-129.7h49.88v-37.33H291.95z M236.59,254.15
		h0.32l18.34,58.57H217.6L236.59,254.15z M214.71,207.81l-62.44,167.03h44.74l10.62-29.93h58.25l10.3,29.93h45.38l-62.44-167.03
		H214.71z"/>
	<rect x="100.4" y="403.49" class="st0" width="776.59" height="124.23"/>
	<path class="st2" d="M812.95,450.15h6.44c3.86,0,8.05,0.64,8.05,5.47c0,4.18-2.57,7.08-9.98,7.08h-7.08L812.95,450.15z
		 M784.31,496.5h18.67l3.86-18.67h12.87c16.09,0,26.71-10.94,26.71-23.17c0-13.84-7.4-19.95-18.67-19.95h-30.57L784.31,496.5z
		 M786.24,434.38h-18.99l-7.08,34.11c-1.29,6.76-3.86,14.16-11.59,14.16c-5.15,0-7.08-2.9-7.08-7.08c0-1.93,0.64-4.83,0.97-7.08
		l7.08-33.79h-18.99l-8.05,39.59c-0.32,1.29-0.64,3.86-0.64,5.15c0,9.98,7.72,18.99,26.07,18.99c15.45,0,27.03-6.76,30.25-22.53
		L786.24,434.38z M682.28,482.66c-7.4,0-9.66-5.79-9.66-11.26c0-9.33,3.86-22.85,15.13-22.85c7.4,0,9.66,5.79,9.66,11.26
		C697.41,469.14,693.55,482.66,682.28,482.66 M688.4,432.77c-20.92,0-34.44,17.06-34.44,37.98c0,17.7,10.62,27.36,28,27.36
		c20.92,0,34.44-17.06,34.44-37.98C716.4,441.14,705.78,432.77,688.4,432.77 M614.7,449.19H625c4.83,0,6.44,2.9,6.44,5.47
		c0,3.86-2.9,7.08-9.33,7.08h-9.98L614.7,449.19z M586.05,496.5h18.67l4.51-21.56h8.05c5.15,0,7.72,2.57,7.72,5.79
		c0,3.22-0.97,6.76-0.97,9.98c0,2.9,0,4.51,0.64,6.11h18.02c-0.64-1.93-0.97-4.51-0.97-7.08c0-2.9,0.32-5.79,0.32-8.69
		c0-5.79-0.64-10.94-6.44-12.55v-0.32c9.01-1.61,14.48-8.05,14.48-17.06c0-13.2-8.69-16.41-19.95-16.41h-31.22L586.05,496.5z
		 M558.05,432.77c-24.14,0-35.08,19.31-35.08,38.94c0,7.72,3.54,26.07,25.1,26.07c6.44,0,12.55-2.25,16.74-7.72l0.32,0.32
		l-0.64,6.11h11.91l7.08-34.11h-25.1l-2.9,13.2h8.69c-1.93,5.15-6.11,6.76-11.26,6.76c-7.72,0-10.62-4.83-10.62-12.23
		c0-10.62,4.83-21.88,15.13-21.88c4.83,0,8.05,1.93,8.69,7.72h18.02C583.16,439.85,571.89,432.77,558.05,432.77 M454.42,449.19h10.3
		c4.83,0,6.44,2.9,6.44,5.47c0,3.86-2.9,7.08-9.33,7.08h-9.98L454.42,449.19z M426.1,496.5h18.67l4.51-21.56h8.05
		c5.15,0,7.72,2.57,7.72,5.79c0,3.22-0.97,6.76-0.97,9.98c0,2.9,0,4.51,0.64,6.11h18.02c-0.64-1.93-0.97-4.51-0.97-7.08
		c0-2.9,0.32-5.79,0.32-8.69c0-5.79-0.64-10.94-6.44-12.55v-0.32c9.01-1.61,14.48-8.05,14.48-17.06c0-13.2-8.69-16.41-19.95-16.41
		h-31.22L426.1,496.5z M365.27,496.5h51.49l3.22-15.77h-32.51l1.61-7.72h29.61l2.9-14.8h-29.61l1.61-7.72h31.86l3.22-15.77h-50.85
		L365.27,496.5z M322.47,496.5h18.99l9.33-46.34h17.06l3.22-15.77h-53.1l-3.22,15.77h17.06L322.47,496.5z M266.79,496.5h46.34
		l3.22-15.77H289l9.33-46.34h-18.99L266.79,496.5z M229.14,474.29l9.66-18.67h0.32l1.93,18.67H229.14z M198.24,496.5h19.31
		l4.83-9.01h19.95l0.97,9.01h18.67l-9.66-62.11h-18.67L198.24,496.5z M186.01,496.5h-18.34v-32.18h-0.32l-13.2,32.18H135.8
		l-4.51-62.11h18.67v36.05h0.32l14.8-36.05h16.41v36.05h0.32l14.48-36.05h19.31L186.01,496.5z"/>
	<polygon class="st3" points="981.64,207.81 958.47,231.3 1018.33,291.49 958.47,351.67 981.64,375.16 1065,291.49 	"/>
	<polygon class="st3" points="99.17,16.64 122.34,40.13 62.48,100.32 122.34,160.5 99.17,183.67 15.81,100.32 	"/>
</g>
<g id="Brand">
	<path id="Brand-Form" class="st0" d="M927.04,419.63c-11.43,10.39-18.59,24.66-20.06,40.04l-0.29,68.05h62.11
		c16.48,0,32.27-6.55,43.92-18.19c11.65-11.65,18.19-27.45,18.19-43.92c0-16.47-6.55-32.27-18.19-43.92s-27.45-18.19-43.92-18.19
		C953.36,403.49,938.47,409.24,927.04,419.63z"/>
	<path id="Brand-IT" class="st2" d="M951.08,461.67c1.72,0,3.09,0.56,4.12,1.68s1.55,2.66,1.55,4.6v0.45h-7.97
		c0.04,0.81,0.28,1.43,0.71,1.86c0.43,0.43,1,0.65,1.72,0.65c0.47,0,0.89-0.11,1.26-0.33c0.36-0.22,0.62-0.51,0.77-0.88h3.33
		c-0.32,1.21-0.97,2.12-1.95,2.74s-2.13,0.93-3.45,0.93c-1.8,0-3.24-0.53-4.32-1.59c-1.08-1.06-1.62-2.49-1.62-4.29
		c0-1.66,0.57-3.05,1.71-4.15C948.06,462.22,949.45,461.67,951.08,461.67z M977.87,461.67c1.72,0,3.09,0.56,4.12,1.68
		s1.55,2.66,1.55,4.6v0.45h-7.97c0.04,0.81,0.28,1.43,0.71,1.86c0.43,0.43,1,0.65,1.72,0.65c0.47,0,0.89-0.11,1.26-0.33
		c0.36-0.22,0.62-0.51,0.77-0.88h3.33c-0.32,1.21-0.97,2.12-1.95,2.74s-2.13,0.93-3.45,0.93c-1.8,0-3.24-0.53-4.32-1.59
		c-1.08-1.06-1.62-2.49-1.62-4.29c0-1.66,0.57-3.05,1.71-4.15C974.85,462.22,976.24,461.67,977.87,461.67z M929.22,457.84
		l2.11,11.12h0.04l2.2-11.12h3.66l2.2,11.12h0.04l2.11-11.12h3.89l-4.12,15.21h-3.89l-2.05-10.48h-0.04l-2.05,10.48h-3.96
		l-4.04-15.21H929.22z M970.92,461.78c0.31,0,0.59,0.03,0.84,0.09v3.3c-0.56-0.14-1.01-0.21-1.36-0.21c-0.77,0-1.41,0.24-1.92,0.72
		c-0.51,0.48-0.76,1.09-0.76,1.83v5.54h-3.56v-11.06h3.45v1.94h0.04c0.24-0.68,0.64-1.21,1.21-1.59
		C969.44,461.97,970.12,461.78,970.92,461.78z M995.26,457.84v15.21h-3.89v-15.21H995.26z M1009.46,457.84v3.41H1005v11.8h-3.89
		v-11.8h-4.46v-3.41H1009.46z M1012.29,469.08v3.96h-3.89v-3.96H1012.29z M951.06,464.12c-0.6,0-1.1,0.2-1.51,0.6
		s-0.66,0.95-0.77,1.66h4.42c-0.04-0.64-0.25-1.18-0.64-1.61S951.67,464.12,951.06,464.12z M977.85,464.12c-0.6,0-1.1,0.2-1.51,0.6
		s-0.66,0.95-0.77,1.66h4.42c-0.04-0.64-0.25-1.18-0.64-1.61C978.96,464.34,978.47,464.12,977.85,464.12z M961.76,457.84v3.58
		c0,1.15-0.3,2.08-0.9,2.78c-0.6,0.7-1.41,1.14-2.43,1.31v-1.7c0.45-0.09,0.81-0.3,1.09-0.65c0.28-0.35,0.42-0.76,0.42-1.25v-0.11
		h-1.51v-3.96H961.76z"/>
</g>
</svg>
